# xmcd CD Database Entry
#
# Track frame offsets:
# 150
# 17769
# 37495
# 60139
# 71147
# 80375
# 98006
# 112789
# 122909
# 138396
# 155236
# 169559
# 198421
# 220652
# 232875
# 254264
#
# Disc length: 3681 seconds
#
# Revision: 1
# Processed by: cddbd v1.4PL0 Copyright (c) Steve Scherf et al.
# Submitted via: tcd 2.0b
#
DISCID=d60e5f10
DTITLE=THE CLASSIC CHILLOUT ALBUM
DYEAR=1900
DGENRE=
TTITLE0=KINOBE Slip into Something More Comfortable
TTITLE1=GROOVE ARMADA At the River
TTITLE2=EVERYTHING BUR THE GIRL Missing
TTITLE3=I MONSTER Daydream in Blue
TTITLE4=WILLIAM ORBIT Barber Adagio For Strings
TTITLE5=THE BOLOVED Sweet Harmony
TTITLE6=ROBIN YOUNGSMITH Adagio
TTITLE7=FAITHLESS Drifting
TTITLE8=MUSIC SCULTORS X-Files
TTITLE9=ROBERT MILES Children
TTITLE10=CHRIS DAVIS Nimrod
TTITLE11=MOBY Novio
TTITLE12=JOOLZ GIANNI Silver
TTITLE13=MORCHEEBA World Looking In
TTITLE14=CHICANE with MÀIRE BRENNAN Saltwater
TTITLE15=JAKATTA American Dream
EXTD=
EXTT0=
EXTT1=
EXTT2=
EXTT3=
EXTT4=
EXTT5=
EXTT6=
EXTT7=
EXTT8=
EXTT9=
EXTT10=
EXTT11=
EXTT12=
EXTT13=
EXTT14=
EXTT15=
PLAYORDER=
